<?xml version="1.0" encoding="UTF-8"?><svg id="a" xmlns="http://www.w3.org/2000/svg" viewBox="0 0 80.44 80.44"><defs><style>.b{fill:#fff;}.c{fill:#ff9800;stroke:#000;stroke-miterlimit:10;stroke-width:.84px;}</style></defs><rect x="3.41" y="3.41" width="77.03" height="77.03" rx="7.77" ry="7.77"/><rect class="c" x=".42" y=".42" width="77.03" height="77.03" rx="7.77" ry="7.77"/><path class="b" d="m56.63,56.36l1.3,2.59c.44.88-.2,1.93-1.19,1.93h-10.25c-.99,0-1.63-1.04-1.19-1.93l2.26-4.52,4.06-8.12,1.99-3.98,1.61-3.22,1.61-3.22,6.04-12.09,5.48-10.96c.44-.88-.2-1.93-1.19-1.93H11.08c-.99,0-1.63,1.04-1.19,1.93l5.11,10.22c.23.45.69.74,1.19.74h4.23c.99,0,1.63-1.04,1.19-1.93l-1.3-2.59c-.44-.88.2-1.93,1.19-1.93h10.25c.99,0,1.63,1.04,1.19,1.93l-2.26,4.52-3.63,7.27-.42.84h0s-1.99,3.98-1.99,3.98l-1.61,3.22-.42.84-1.19,2.38-6.05,12.1-5.48,10.96c-.44.88.2,1.93,1.19,1.93h56.07c.99,0,1.63-1.04,1.19-1.93l-5.11-10.22c-.23-.45-.69-.74-1.19-.74h-4.23c-.99,0-1.63,1.04-1.19,1.93Zm-25.98-18.08l1.19-2.38,6.04-12.09.04-.08c.49-.98,1.89-.98,2.38,0l.04.08,6.05,12.09h0c.49.98,1.89.98,2.38,0l.17-.34,1.99-3.98.25-.51-3.64-7.27-2.84-5.69-.38-.75h12.4c.99,0,1.63,1.04,1.19,1.93l-2.26,4.52-4.06,8.12-1.99,3.98-1.61,3.22-1.61,3.22-6.05,12.1-.04.08c-.49.98-1.89.98-2.38,0l-.04-.08-6.05-12.1-1.61-3.22.42-.84Zm-9.15,22.6c-.99,0-1.63-1.04-1.19-1.93l2.26-4.52,3.64-7.27.42-.84,4.05,8.11,2.26,4.52c.44.88-.2,1.93-1.19,1.93h-10.25Z"/></svg>